<svg width="24" height="34" viewBox="0 0 24 34" fill="none" xmlns="http://www.w3.org/2000/svg">
<path d="M17.7672 6.32094C15.7762 5.87254 13.7076 5.79341 11.6907 6.10993C12.001 5.76703 12.2854 5.34501 12.5181 4.92298C13.1646 3.60415 13.2421 2.04792 12.725 0.676338C12.544 0.175181 12.001 -0.114962 11.4838 0.043298C10.0875 0.412571 8.89804 1.38851 8.2516 2.70734C8.0706 3.10299 7.91545 3.49864 7.83788 3.92067C7.34658 3.39313 6.75185 2.91835 6.10541 2.60183C4.55395 1.81053 2.74391 1.70503 1.11487 2.36444C0.623577 2.54908 0.339143 3.10299 0.494289 3.63052C0.959728 5.34501 2.09747 6.76935 3.64893 7.58702C4.34709 7.92992 5.09696 8.16731 5.84684 8.22006C4.26951 9.14325 2.84734 10.3302 1.65789 11.7545C0.106423 13.6009 -0.410731 16.2122 0.339143 18.5333V18.5597C2.17504 24.2043 5.92441 29.0049 10.8891 32.0909C12.8543 33.3043 15.2332 33.568 17.4052 32.8559C19.5773 32.1173 21.3356 30.4556 22.1889 28.2927C24.3868 22.8064 24.5937 16.6606 22.7578 11.016V10.9896C22.0338 8.64209 20.1203 6.87485 17.7672 6.32094ZM21.5425 11.4116C23.2749 16.7661 23.0681 22.569 20.9995 27.7652C20.2754 29.5588 18.8274 30.9567 17.0174 31.5634C15.2073 32.1701 13.2421 31.9327 11.6131 30.9304C6.88114 28.0026 3.33864 23.4658 1.60617 18.1377V18.1113C1.01144 16.2386 1.39931 14.1284 2.66634 12.625C4.45052 10.5148 6.77771 8.93223 9.38934 8.03543C12.001 7.165 14.7936 7.00674 17.4828 7.63978C19.3704 8.08818 20.9219 9.51252 21.5425 11.4116Z" fill="#D52A3F"/>
<path d="M20.198 11.8334C19.7325 10.4091 18.5689 9.35404 17.1468 9.03752C14.7937 8.50999 12.2855 8.58912 9.8549 9.40679C7.42427 10.2245 5.3298 11.7016 3.77834 13.5479C2.8216 14.6821 2.51131 16.2383 2.97675 17.6363V17.6627C3.67491 19.7992 4.6575 21.7774 5.87281 23.5183C5.87281 23.5183 5.87281 23.5183 5.87281 23.5447C6.31239 24.1777 7.24327 24.2041 7.70871 23.5711C8.5103 22.4369 10.1135 20.8279 13.1905 19.7992C18.2328 18.1111 21.103 14.7085 20.198 11.8334ZM9.59632 17.5572C8.97574 18.0847 8.71716 19.2717 8.74302 20.1948C8.74302 20.274 8.63959 20.3267 8.58787 20.2476C8.12243 19.4563 7.26913 18.6386 6.46754 18.5331C6.41582 18.5331 6.38997 18.4804 6.36411 18.454C6.36411 18.4012 6.36411 18.3749 6.38997 18.3221C7.01055 17.7946 7.26913 16.6076 7.24327 15.6844C7.24327 15.6053 7.3467 15.5526 7.39842 15.6317C7.86386 16.423 8.71716 17.2407 9.51875 17.3462C9.57047 17.3462 9.59632 17.3989 9.62218 17.4253C9.64804 17.4781 9.62218 17.5308 9.59632 17.5572ZM10.0876 12.9149C9.69975 13.2578 9.57046 14.0227 9.59632 14.5766C9.59632 14.6294 9.51875 14.6557 9.49289 14.603C9.1826 14.1282 8.63959 13.6271 8.12243 13.5479C8.09658 13.5479 8.07072 13.5216 8.07072 13.4952C8.07072 13.4688 8.07072 13.4424 8.09658 13.416C8.48444 13.0731 8.61373 12.3082 8.58787 11.7543C8.58787 11.7016 8.66544 11.6752 8.6913 11.7279C9.0016 12.2027 9.54461 12.7039 10.0618 12.783C10.0876 12.783 10.1135 12.8094 10.1135 12.8358C10.1135 12.8621 10.1135 12.9149 10.0876 12.9149Z" fill="#D52A3F"/>
</svg>
