<svg xmlns="http://www.w3.org/2000/svg" viewBox="0 0 546.31 545.27">

      <ellipse cx="273.17" cy="272.63" rx="273.34" ry="258.01" transform="rotate(-71.9 273.143 272.635)"
               style="isolation:isolate" fill="#6fb8aa" opacity=".1"/>
      <ellipse cx="273.16" cy="272.63" rx="258.01" ry="273.33" transform="rotate(-37.63 273.123 272.615)"
               style="isolation:isolate" fill="#6fb8aa" opacity=".1"/>
      <ellipse cx="273.16" cy="272.63" rx="258.01" ry="273.33" transform="rotate(-13.03 273.172 272.657)"
               style="isolation:isolate" fill="#6fb8aa" opacity=".1"/>
      <ellipse cx="273.15" cy="272.63" rx="273.34" ry="258.01" transform="rotate(-66 273.14 272.635)"
               style="isolation:isolate" fill="#6fb8aa" opacity=".1"/>
      <ellipse cx="273.15" cy="272.63" rx="273.33" ry="258.01" transform="rotate(-6.77 272.9 272.41)"
               style="isolation:isolate" fill="#6fb8aa" opacity=".1"/>
      <ellipse cx="273.64" cy="272.63" rx="242" ry="231" style="isolation:isolate" fill="#6fb8aa" opacity=".1"/>
      <ellipse cx="273.15" cy="272.63" rx="228.75" ry="242.34" transform="rotate(-74.23 273.126 272.628)"
               style="isolation:isolate" fill="#6fb8aa" opacity=".1"/>
      <ellipse cx="273.17" cy="272.63" rx="214.06" ry="226.78" transform="rotate(-28.72 273.16 272.625)"
               style="isolation:isolate" fill="#6fb8aa" opacity=".1"/>
      <ellipse cx="273.17" cy="272.63" rx="214.06" ry="226.78" transform="rotate(-28.72 273.16 272.625)"
               style="isolation:isolate" fill="#6fb8aa" opacity=".1"/>
      <ellipse cx="273.15" cy="272.63" rx="228.75" ry="242.34" transform="rotate(-3.62 272.837 272.326)"
               style="isolation:isolate" fill="#6fb8aa" opacity=".1"/>
      <ellipse cx="273.16" cy="272.63" rx="226.77" ry="214.06" transform="rotate(-62.11 273.145 272.632)"
               style="isolation:isolate" fill="#6fb8aa" opacity=".1"/>
      <ellipse cx="273.15" cy="272.63" rx="214.06" ry="226.77" transform="rotate(-70.76 273.162 272.636)"
               style="isolation:isolate" fill="#6fb8aa" opacity=".1"/>
      <ellipse cx="273.15" cy="272.63" rx="191.93" ry="203.33" transform="rotate(-3.62 272.837 272.326)"
               style="isolation:isolate" fill="#6fb8aa" opacity=".1"/>
      <path d="M208.64 270.13l43.36 45.5 86.67-91" fill="none" stroke="#fff" stroke-width="22"/>

</svg>