<svg version="1.0" xmlns="http://www.w3.org/2000/svg"
 width="1088.000000pt" height="1088.000000pt" viewBox="0 0 1088.000000 1088.000000"
 preserveAspectRatio="xMidYMid meet">
<metadata>
Created by potrace 1.11, written by Peter Selinger 2001-2013
</metadata>
<g transform="translate(0.000000,1088.000000) scale(0.100000,-0.100000)"
fill="#000000" stroke="none">
<path d="M5265 10864 c-27 -8 -57 -16 -65 -18 -57 -14 -306 -128 -345 -158 -5
-4 -40 -28 -77 -52 -78 -52 -86 -59 -194 -157 -38 -34 -105 -106 -152 -163
-57 -68 -139 -200 -192 -311 -57 -117 -135 -339 -125 -355 3 -5 2 -11 -3 -14
-5 -3 -31 18 -58 45 -78 80 -201 181 -307 253 -97 66 -296 168 -392 200 -27
10 -59 22 -70 27 -36 16 -209 59 -295 73 -19 3 -46 8 -60 11 -14 3 -61 7 -105
10 -44 2 -90 6 -102 9 -13 3 -23 0 -23 -5 0 -6 -5 -7 -12 -3 -11 7 -109 6
-183 -2 -22 -2 -61 -6 -86 -8 -26 -2 -52 -6 -58 -10 -6 -4 -11 -5 -11 -2 0 2
-28 -3 -63 -11 -34 -8 -75 -17 -91 -20 -44 -7 -224 -72 -279 -100 -124 -63
-193 -216 -163 -363 4 -23 31 -117 42 -150 3 -8 5 -17 6 -20 0 -3 5 -14 11
-25 6 -11 12 -26 13 -33 1 -8 9 -28 17 -45 8 -18 25 -54 37 -82 40 -89 182
-328 210 -355 3 -3 33 -39 67 -80 162 -200 390 -384 616 -499 53 -27 107 -52
119 -56 13 -4 25 -8 28 -9 148 -65 347 -118 488 -130 23 -1 45 -5 47 -8 3 -3
-45 -36 -106 -74 -154 -96 -235 -149 -249 -165 -3 -3 -29 -20 -57 -39 -29 -18
-53 -36 -53 -40 0 -3 -14 -14 -31 -24 -18 -10 -39 -26 -48 -35 -9 -9 -42 -35
-73 -59 -31 -24 -67 -53 -80 -65 -14 -13 -38 -33 -54 -46 -24 -19 -181 -161
-218 -197 -60 -60 -242 -252 -281 -298 -27 -32 -59 -68 -69 -80 -73 -82 -200
-269 -249 -366 -12 -25 -25 -47 -28 -50 -17 -13 -141 -317 -153 -375 -4 -16
-28 -98 -34 -115 -3 -8 -6 -19 -6 -25 -1 -5 -5 -23 -9 -40 -10 -39 -16 -72
-23 -115 -3 -19 -7 -46 -10 -60 -19 -111 -26 -454 -11 -575 4 -33 9 -80 12
-105 7 -57 41 -204 67 -294 11 -38 21 -76 23 -85 2 -9 15 -47 28 -84 14 -37
25 -69 26 -70 0 -1 4 -15 10 -30 6 -16 11 -31 11 -34 0 -7 93 -246 137 -353
120 -290 334 -729 430 -882 13 -21 23 -39 23 -42 0 -2 25 -45 55 -95 30 -51
55 -96 55 -101 0 -4 3 -10 8 -12 8 -3 107 -156 129 -201 8 -15 19 -27 24 -27
6 0 7 -4 4 -10 -3 -5 -2 -10 2 -10 5 0 22 -22 38 -50 16 -27 33 -50 37 -50 4
0 8 -6 8 -14 0 -7 10 -25 23 -39 12 -14 38 -48 57 -76 32 -48 105 -146 133
-181 7 -8 23 -31 37 -50 24 -34 44 -60 65 -84 6 -6 28 -34 50 -61 22 -28 44
-55 50 -62 5 -6 20 -24 32 -40 12 -15 37 -45 55 -65 18 -20 58 -65 88 -100
144 -165 460 -486 624 -633 48 -44 98 -89 110 -100 12 -11 42 -36 66 -55 24
-19 48 -40 54 -45 10 -10 100 -83 139 -115 11 -8 24 -20 31 -25 10 -9 195
-148 341 -256 28 -20 120 -82 205 -138 85 -55 160 -104 165 -109 6 -4 17 -11
25 -15 8 -4 33 -18 55 -31 43 -26 196 -104 258 -130 20 -9 52 -22 70 -30 118
-52 388 -126 522 -142 22 -3 45 -7 52 -9 87 -28 586 -24 720 6 24 5 46 9 50 8
5 -1 10 0 13 1 7 2 29 7 65 13 17 3 68 15 115 27 47 12 90 23 95 25 6 1 21 7
35 12 14 6 40 14 57 17 18 4 35 12 38 17 4 5 13 9 21 9 7 0 47 15 87 34 40 18
84 37 97 41 14 4 27 11 30 14 3 3 39 24 80 45 72 37 260 152 270 166 3 3 21
17 40 30 131 90 310 261 440 420 25 30 47 57 50 60 3 3 22 28 41 55 18 28 37
52 40 55 5 5 70 106 100 158 74 127 176 343 186 396 2 11 7 24 12 30 33 42
276 801 305 951 2 11 9 38 14 60 6 22 13 52 16 67 2 15 7 31 9 35 3 5 8 26 11
48 4 22 9 48 12 57 5 16 9 34 19 88 3 14 7 36 10 50 3 14 8 40 11 59 3 18 8
43 10 55 16 83 27 144 29 161 1 11 5 38 8 60 4 22 9 56 12 75 2 19 7 46 9 60
3 14 8 52 11 85 3 33 8 74 10 90 3 17 7 50 10 75 2 25 6 74 10 110 24 254 30
408 28 790 -1 295 -7 545 -13 545 -1 0 -8 75 -15 160 -11 142 -16 191 -20 204
-3 7 -8 44 -11 82 -5 64 -11 104 -14 104 -1 0 -7 39 -14 95 -6 47 -15 105 -26
165 -5 28 -12 64 -15 80 -2 17 -9 55 -15 85 -6 30 -14 66 -16 80 -3 14 -10 45
-15 70 -6 25 -13 56 -15 70 -3 14 -14 59 -24 100 -10 41 -21 86 -24 100 -2 14
-21 84 -41 155 -20 72 -38 137 -40 145 -38 148 -146 461 -167 488 -6 6 -8 12
-5 12 15 0 -166 320 -185 328 -4 2 -8 8 -8 13 0 5 -6 17 -14 26 -8 10 -36 47
-63 83 -49 66 -280 304 -343 352 -55 42 -80 61 -110 86 -15 12 -31 22 -34 22
-3 0 -27 15 -53 34 -27 18 -68 44 -93 57 -25 13 -53 30 -62 38 -10 8 -18 10
-18 6 0 -4 -8 -1 -17 7 -10 8 -63 34 -118 57 -55 23 -109 46 -120 51 -17 7
-90 32 -105 35 -3 1 -25 7 -50 14 -25 7 -46 13 -47 13 -2 -1 -24 5 -50 13 -27
7 -61 16 -78 19 -16 3 -41 7 -55 11 -14 3 -67 12 -119 21 -52 8 -97 17 -100
18 -3 2 -35 7 -70 10 -35 3 -73 8 -85 11 -11 2 -50 7 -86 10 -36 4 -78 8 -95
10 -148 16 -745 28 -745 15 0 -3 -21 -5 -48 -6 -26 0 -81 -4 -122 -8 -41 -3
-100 -9 -130 -12 -30 -2 -66 -7 -80 -9 -57 -10 -130 -16 -130 -11 0 3 8 14 18
24 27 29 55 64 82 102 13 19 27 37 30 40 30 26 180 305 180 335 0 8 4 15 8 15
4 0 8 8 9 18 1 9 7 31 14 47 7 17 13 35 14 40 2 6 11 39 20 75 9 36 19 76 21
90 3 14 7 39 11 55 8 37 10 60 16 158 3 43 7 81 10 84 3 3 4 10 2 16 -3 7 -7
59 -9 117 -3 58 -8 121 -11 140 -3 19 -7 52 -9 72 -2 20 -6 41 -10 46 -3 5 -8
24 -11 43 -3 19 -13 59 -23 89 -9 30 -16 57 -17 60 -9 51 -66 152 -112 196
-69 68 -216 99 -318 68z m1039 -2310 c98 -3 233 -11 306 -19 43 -5 79 -10 152
-21 18 -3 49 -6 68 -8 19 -2 46 -6 60 -10 14 -3 42 -8 64 -11 21 -3 41 -7 45
-10 4 -2 25 -6 47 -9 133 -17 348 -84 499 -157 125 -60 282 -154 315 -189 3
-3 23 -18 45 -35 47 -34 275 -263 275 -275 0 -5 6 -15 13 -22 31 -34 77 -98
77 -107 0 -6 5 -11 10 -11 6 0 10 -6 10 -14 0 -8 3 -16 8 -18 34 -15 207 -406
228 -517 3 -13 9 -32 15 -43 5 -10 7 -18 4 -18 -2 0 1 -17 9 -37 18 -50 44
-141 50 -175 3 -15 7 -32 11 -38 4 -6 9 -23 11 -38 3 -15 18 -79 34 -142 16
-63 31 -128 34 -145 2 -16 9 -52 15 -80 6 -27 13 -59 16 -70 6 -31 26 -144 30
-173 2 -15 6 -38 9 -52 3 -14 8 -43 11 -65 4 -22 8 -51 10 -65 2 -14 7 -50 10
-80 3 -30 10 -86 15 -125 5 -38 12 -90 15 -115 4 -25 8 -76 11 -115 2 -38 6
-86 8 -105 25 -220 25 -951 1 -1165 -3 -22 -7 -71 -9 -110 -3 -38 -7 -88 -10
-110 -3 -22 -8 -62 -11 -90 -3 -27 -7 -63 -9 -80 -3 -16 -7 -52 -11 -80 -3
-27 -8 -57 -10 -65 -2 -8 -7 -42 -11 -75 -3 -33 -8 -68 -10 -78 -2 -9 -6 -27
-9 -39 -2 -12 -7 -38 -10 -58 -3 -20 -8 -47 -11 -60 -5 -24 -8 -42 -18 -93
-12 -66 -19 -100 -37 -177 -11 -47 -22 -95 -24 -106 -3 -12 -17 -66 -31 -120
-14 -55 -28 -107 -30 -117 -10 -43 -14 -58 -44 -152 -17 -55 -32 -107 -35
-116 -11 -49 -141 -420 -178 -509 -6 -14 -11 -28 -12 -32 -2 -5 -4 -10 -5 -13
-1 -3 -3 -8 -4 -12 -1 -5 -24 -53 -51 -108 -27 -55 -48 -103 -47 -107 1 -5 -2
-8 -8 -8 -5 0 -10 -4 -10 -9 0 -12 -82 -145 -92 -149 -5 -2 -8 -8 -8 -14 0
-11 -60 -91 -72 -96 -5 -2 -8 -9 -8 -16 0 -6 -9 -18 -20 -26 -11 -8 -20 -18
-20 -23 0 -8 -3 -12 -110 -122 -56 -58 -149 -143 -230 -208 -29 -24 -167 -118
-200 -136 -14 -7 -38 -21 -55 -29 -16 -8 -43 -25 -60 -36 -16 -12 -32 -21 -35
-20 -3 0 -30 -10 -60 -24 -55 -24 -201 -80 -230 -88 -92 -24 -213 -53 -245
-58 -22 -3 -51 -8 -65 -10 -137 -26 -475 -24 -612 3 -29 6 -64 13 -78 15 -21
4 -106 24 -170 41 -74 19 -198 66 -305 115 -84 39 -229 121 -233 132 -2 4 -8
8 -14 8 -6 0 -26 11 -44 25 -18 14 -35 25 -37 25 -11 0 -473 322 -487 340 -3
3 -33 27 -67 53 -34 26 -68 53 -75 60 -7 6 -29 24 -48 38 -19 15 -46 37 -60
49 -14 12 -47 40 -75 63 -27 23 -56 49 -65 57 -9 8 -59 53 -111 100 -113 102
-379 368 -469 469 -36 40 -76 85 -90 100 -72 79 -153 174 -213 251 -7 8 -23
29 -37 46 -14 17 -38 48 -55 69 -16 21 -36 44 -43 51 -6 7 -12 15 -12 18 0 4
-107 150 -144 196 -64 81 -396 608 -396 630 0 5 -3 10 -7 10 -5 0 -13 10 -18
23 -17 35 -80 152 -85 157 -9 9 -207 414 -235 480 -26 63 -38 91 -75 175 -21
47 -110 273 -110 280 0 2 -5 16 -12 32 -6 15 -12 30 -13 33 -7 29 -30 88 -38
98 -5 6 -7 12 -4 12 3 0 -1 16 -9 35 -8 19 -12 35 -9 35 3 0 0 10 -6 22 -11
20 -19 46 -34 112 -2 10 -9 33 -14 50 -6 17 -13 47 -16 66 -3 19 -10 60 -15
90 -20 118 -28 366 -15 460 3 19 7 56 9 81 3 26 7 57 10 70 3 13 8 36 11 52
24 129 57 237 112 367 41 96 108 217 166 303 45 67 160 212 194 243 13 12 23
27 23 34 0 7 3 11 6 8 3 -3 24 15 47 40 62 69 246 250 313 307 32 28 76 67 98
87 23 21 44 38 47 38 3 0 17 10 31 23 72 64 218 173 368 273 125 84 307 194
320 194 6 0 10 3 10 8 0 4 30 21 65 37 36 17 65 33 65 38 0 4 5 7 12 7 6 0 55
23 109 50 55 28 101 50 104 50 3 0 18 6 33 14 28 15 248 106 267 110 6 2 17 6
25 9 64 26 150 55 150 50 0 -3 6 -1 13 5 6 5 28 13 47 17 19 4 40 10 45 13 6
4 15 7 20 9 6 1 35 9 65 18 30 9 62 17 70 19 8 2 44 12 80 21 76 20 61 17 220
49 69 13 143 27 165 30 22 4 51 8 65 11 14 3 45 7 70 10 84 10 125 15 163 20
69 10 239 18 389 19 82 1 148 5 148 9 0 5 5 5 11 1 6 -4 53 -8 103 -10z"/>
<path d="M5967 8093 c-1 -1 -49 -4 -107 -8 -58 -3 -118 -7 -135 -9 -16 -2 -61
-7 -100 -10 -38 -4 -77 -9 -85 -11 -8 -2 -37 -7 -65 -10 -27 -3 -57 -7 -65 -9
-8 -3 -31 -7 -50 -10 -19 -3 -46 -8 -60 -11 -14 -3 -36 -7 -50 -10 -44 -9
-263 -63 -320 -80 -30 -9 -62 -18 -70 -20 -8 -2 -42 -13 -75 -25 -33 -11 -60
-20 -60 -20 0 1 -13 -4 -30 -10 -16 -6 -61 -22 -100 -37 -223 -82 -637 -289
-784 -392 -9 -6 -45 -30 -81 -54 -36 -23 -91 -61 -122 -85 -31 -23 -59 -42
-62 -42 -2 0 -17 -11 -32 -24 -16 -13 -67 -55 -114 -92 -47 -38 -90 -73 -96
-79 -7 -5 -47 -42 -91 -82 -136 -123 -318 -310 -374 -384 -15 -18 -37 -45 -50
-59 -71 -76 -211 -331 -234 -425 -1 -5 -5 -17 -8 -25 -8 -20 -35 -127 -41
-165 -44 -269 -18 -508 90 -805 3 -8 5 -16 5 -17 -1 -3 26 -76 39 -108 5 -11
20 -49 33 -85 13 -36 28 -74 32 -85 5 -11 9 -22 10 -25 1 -3 6 -16 12 -30 6
-14 21 -50 33 -80 12 -30 30 -73 40 -95 10 -22 35 -78 56 -125 37 -81 200
-407 241 -480 11 -19 35 -62 53 -94 82 -149 305 -498 321 -504 5 -2 9 -11 9
-19 0 -15 46 -64 97 -104 78 -62 243 -74 346 -27 53 25 123 86 170 149 9 13
25 35 35 47 93 127 299 339 443 457 158 129 395 287 559 371 41 22 77 42 80
45 5 5 38 21 50 23 3 1 39 18 80 38 101 49 246 109 355 147 50 18 104 38 120
44 17 7 32 12 35 12 10 1 115 38 125 44 6 3 15 6 20 7 6 1 24 8 40 15 17 7 32
13 35 14 10 3 46 18 87 35 23 10 44 16 47 12 3 -3 6 0 6 6 0 7 5 12 11 12 23
0 358 157 370 173 3 5 8 7 10 6 2 -2 33 13 69 33 36 20 77 42 93 49 15 7 27
16 27 21 0 4 4 8 10 8 5 0 36 16 67 36 60 38 221 143 238 156 101 77 219 170
252 200 24 21 48 38 54 38 7 0 10 3 7 6 -4 3 12 22 35 42 66 59 182 182 247
261 60 73 180 245 180 257 0 7 4 14 8 16 16 6 100 175 136 272 90 239 113 467
70 696 -3 19 -7 40 -8 45 -6 29 -40 131 -48 140 -4 5 -8 16 -8 25 0 24 -76
168 -138 259 -65 97 -209 248 -297 312 -33 24 -62 46 -65 49 -9 9 -64 41 -120
68 -30 15 -58 32 -62 37 -4 6 -8 6 -8 2 0 -5 -12 -1 -27 7 -43 24 -178 65
-288 87 -55 11 -107 22 -117 24 -15 3 -65 11 -133 20 -16 2 -41 6 -54 9 -13 3
-56 8 -95 12 -39 3 -82 8 -96 10 -66 11 -555 26 -563 17z m-1537 -1033 c0 -14
143 -150 188 -179 26 -17 52 -34 57 -39 6 -4 26 -14 45 -21 19 -7 44 -17 55
-21 11 -5 29 -10 40 -12 27 -5 21 -33 -16 -72 -16 -17 -32 -40 -35 -51 -4 -11
-11 -23 -16 -26 -5 -3 -11 -12 -12 -20 -2 -8 -6 -21 -9 -29 -39 -98 -54 -188
-56 -322 -1 -83 -14 -87 -62 -20 -39 54 -138 156 -189 194 -71 53 -192 107
-221 100 -4 -1 -9 7 -12 17 -3 11 6 30 22 47 81 89 130 239 136 422 2 50 7 97
11 103 6 10 74 -55 74 -71z m-416 -1252 c156 -236 396 -427 586 -469 93 -21
101 -41 42 -104 -68 -73 -162 -242 -176 -319 -3 -14 -7 -30 -11 -36 -3 -5 -8
-22 -10 -37 -3 -16 -9 -46 -14 -68 -20 -81 -29 -159 -35 -300 -4 -89 -3 -85
-23 -85 -11 0 -34 25 -58 62 -81 126 -233 290 -330 356 -22 15 -41 30 -43 35
-2 4 -8 7 -13 7 -5 0 -26 10 -47 23 -63 39 -155 71 -218 76 -6 1 -16 12 -22
26 -11 23 -9 29 21 58 48 49 83 99 121 171 32 62 76 178 83 221 2 11 8 36 13
55 18 70 32 177 34 270 5 168 20 177 100 58z"/>
</g>
</svg>
