<svg width="740" height="386" viewBox="0 0 740 386" fill="none" xmlns="http://www.w3.org/2000/svg">
<path d="M671.721 251.18C658.587 245.243 646.24 237.831 635.396 228.26C606.48 202.714 593.775 162.344 604.189 124.78C614.389 88.152 646.025 62.0661 682.243 54.0065C687.503 52.8191 685.177 45.2272 680.059 46.0188C646.777 51.3079 616.787 74.3715 601.971 104.703C586.832 135.682 587.584 172.994 603.187 203.65C616.286 229.412 639.405 247.15 664.921 259.312C666.603 256.217 668.894 253.051 671.721 251.18Z" fill="#00484C"/>
<path d="M704.373 171.421C700.617 142.478 687.618 116.459 665.628 96.899C643.566 77.2671 617.026 64.7084 589.548 54.4955C532.93 33.4562 471.437 27.1047 411.388 26.419C377.482 26.022 343.035 27.6821 309.201 32.6983C303.532 22.305 291.689 18.6962 279.845 20.4284C227.596 28.0069 177.55 49.8762 135.808 82.1029C114.649 98.4508 96.0528 117.108 79.6956 138.256C62.0025 161.136 46.7647 189.934 48.1368 219.743C48.7507 232.771 52.3976 244.824 58.5361 255.362C60.522 283.113 77.7458 307.978 103.455 319.598C130.067 331.616 159.965 335.513 188.418 340.926C220.699 347.061 253.125 352.33 285.695 356.589C348.162 364.745 411.569 368.101 474.362 361.605C530.33 355.795 590.487 344.824 636.85 310.721C680.252 278.891 711.558 226.888 704.373 171.421Z" fill="#182037"/>
<path d="M508.152 179.473C503.748 117.698 479.816 49.1637 419.211 21.909C391.2 9.32992 358.028 5.96827 328.971 17.3545C298.686 29.2106 279.122 53.7904 266.921 83.2139C253.06 116.577 246.96 153.266 248.079 189.341C248.476 202.101 249.451 216.921 252.014 231.669C252.158 238.609 252.591 245.513 253.313 252.308C257.211 288.564 269.267 323.771 295.004 350.411C320.019 376.292 355.068 389.088 390.587 384.172C413.472 384.353 435.562 375.605 453.863 361.038C506.672 318.999 512.628 242.043 508.152 179.473ZM384.703 332.157C319.008 338.157 302.693 254.586 302.909 205.643C302.981 192.811 307.132 147.844 308.504 138.88C313.738 104.613 332.797 65.7189 372.502 65.2851C438.197 64.5622 462.021 143.94 463.501 196.679C465.017 248.549 447.655 326.373 384.703 332.157Z" fill="#9F0E20"/>
<path d="M492.773 169.862C488.369 108.088 464.437 39.5532 403.832 12.2986C375.821 -0.28049 342.649 -3.64214 313.592 7.74409C283.307 19.6002 263.743 44.18 251.542 73.6035C237.681 106.967 231.581 143.656 232.7 179.73C233.097 192.49 234.072 207.31 236.635 222.058C236.779 228.998 237.212 235.902 237.934 242.698C241.832 278.953 253.889 314.16 279.625 340.8C304.64 366.681 339.689 379.477 375.208 374.561C398.093 374.742 420.184 365.995 438.484 351.427C491.293 309.353 497.249 232.432 492.773 169.862ZM369.324 322.51C303.629 328.51 287.314 244.939 287.53 195.996C287.602 183.164 291.753 138.198 293.125 129.233C298.359 94.9662 317.418 56.0723 357.124 55.6385C422.819 54.9156 446.642 134.294 448.122 187.032C449.638 238.903 432.276 316.763 369.324 322.51Z" fill="#D52A3F"/>
<path d="M219.344 185.257C218.407 183.343 217.146 181.573 215.453 180.092C207.997 173.662 199.928 171.494 191.355 171.025C190.743 125.401 187.609 79.8133 180.513 34.7315C178.244 20.4267 161.206 11.5765 148.166 13.5632C134.37 15.6584 121.871 27.6513 122.627 42.6064C124.788 86.5323 127.094 130.35 127.526 174.312C118.629 174.745 109.731 175.107 100.834 175.251C95.5032 175.359 89.8839 174.998 84.3727 174.962C84.1565 173.842 83.9404 172.722 83.8323 171.675C83.6882 170.338 83.5442 169.002 83.4001 167.665C83.4361 166.798 83.4361 165.931 83.4001 165.028C82.6437 154.408 81.8512 143.824 81.0947 133.24C79.4018 105.858 78.5733 78.4045 78.7894 50.9508C79.1496 11.432 18.31 11.432 17.5896 50.9508C16.653 100.44 17.6256 151.518 25.5502 200.501C27.8556 214.77 35.1319 226.546 48.1355 233.373C60.0584 239.623 74.1787 239.406 87.2904 239.442C104.004 239.478 120.754 238.828 137.432 237.817C137.071 249.954 136.639 262.091 136.063 274.193C135.451 287.594 134.874 300.996 134.118 314.398C133.253 329.461 131.2 344.272 133.649 359.191C135.487 370.389 148.31 378.481 158.936 378.481C170.787 378.481 180.657 370.244 184.223 359.191C189.338 343.296 188.221 323.971 189.05 307.318C189.878 290.773 190.455 274.229 190.707 257.648C190.851 247.678 190.923 237.708 190.959 227.738C198.704 224.993 205.908 221.38 213.796 218.057C227.737 212.097 227.268 195.588 219.344 185.257Z" fill="#9F0E20"/>
<path d="M734.461 184.296C733.524 182.382 732.264 180.612 730.571 179.13C723.114 172.701 715.045 170.533 706.472 170.064C705.86 124.44 702.726 78.8523 695.63 33.7704C693.361 19.4656 676.323 10.6154 663.283 12.6022C649.487 14.6973 636.988 26.6903 637.744 41.6453C639.905 85.5712 642.211 129.389 642.643 173.351C633.746 173.784 624.849 174.145 615.951 174.29C610.62 174.398 605.001 174.037 599.49 174.001C599.274 172.881 599.058 171.761 598.95 170.714C598.805 169.377 598.661 168.041 598.517 166.704C598.553 165.837 598.553 164.97 598.517 164.067C597.761 153.447 596.968 142.863 596.212 132.279C594.519 104.897 593.69 77.4435 593.907 49.9898C594.267 10.4709 533.427 10.4709 532.707 49.9898C531.77 99.4787 532.743 150.557 540.667 199.54C542.973 213.809 550.249 225.585 563.253 232.412C575.176 238.662 589.296 238.445 602.408 238.481C619.121 238.517 635.871 237.867 652.549 236.855C652.189 248.993 651.756 261.13 651.18 273.232C650.568 286.633 649.991 300.035 649.235 313.437C648.37 328.5 646.317 343.311 648.767 358.23C650.604 369.428 663.427 377.52 674.053 377.52C685.904 377.52 695.774 369.283 699.34 358.23C704.455 342.335 703.339 323.009 704.167 306.357C704.996 289.812 705.572 273.268 705.824 256.687C705.968 246.717 706.04 236.747 706.076 226.777C713.821 224.032 721.025 220.419 728.914 217.096C742.854 211.172 742.385 194.627 734.461 184.296Z" fill="#9F0E20"/>
<path d="M202.073 176.608C201.136 174.693 199.875 172.923 198.182 171.442C190.725 165.012 182.655 162.845 174.081 162.375C173.468 116.752 170.334 71.164 163.237 26.0821C160.967 11.7773 143.927 2.92711 130.886 4.91389C117.088 7.00904 104.587 19.002 105.344 33.957C107.505 77.8829 109.811 121.7 110.243 165.662C101.345 166.096 92.4465 166.457 83.5481 166.602C78.2163 166.71 72.5963 166.349 67.0844 166.313C66.8682 165.193 66.6521 164.073 66.544 163.025C66.3999 161.689 66.2558 160.352 66.1117 159.016C66.1477 158.149 66.1477 157.282 66.1117 156.379C65.3551 145.759 64.5626 135.174 63.806 124.59C62.1128 97.2089 61.2842 69.7552 61.5004 42.3015C61.8607 2.78262 1.01326 2.78262 0.292742 42.3015C-0.643926 91.7904 0.328778 142.869 8.25443 191.852C10.5601 206.121 17.8373 217.897 30.8425 224.724C42.767 230.973 56.8891 230.757 70.0025 230.793C86.7184 230.829 103.47 230.179 120.15 229.167C119.79 241.305 119.358 253.442 118.781 265.543C118.169 278.945 117.592 292.347 116.836 305.749C115.971 320.812 113.918 335.622 116.368 350.541C118.205 361.74 131.03 369.831 141.658 369.831C153.51 369.831 163.381 361.595 166.948 350.541C172.063 334.647 170.946 315.321 171.775 298.668C172.604 282.124 173.18 265.579 173.432 248.999C173.576 239.029 173.648 229.059 173.684 219.089C181.43 216.343 188.635 212.731 196.525 209.408C210.431 203.447 209.962 186.939 202.073 176.608Z" fill="#D52A3F"/>
<path d="M716.204 176.608C715.262 174.693 713.996 172.923 712.295 171.442C704.803 165.012 696.696 162.845 688.082 162.375C687.467 116.752 684.318 71.164 677.188 26.0821C674.908 11.7773 657.789 2.92711 644.687 4.91389C630.825 7.00904 618.267 19.002 619.027 33.957C621.198 77.8829 623.515 121.7 623.949 165.662C615.009 166.096 606.07 166.457 597.13 166.602C591.774 166.71 586.128 166.349 580.59 166.313C580.373 165.193 580.156 164.073 580.047 163.025C579.903 161.689 579.758 160.352 579.613 159.016C579.649 158.149 579.649 157.282 579.613 156.379C578.853 145.759 578.057 135.174 577.297 124.59C575.596 97.2089 574.763 69.7552 574.98 42.3015C575.342 2.78262 514.213 2.78262 513.489 42.3015C512.548 91.7904 513.526 142.869 521.488 191.852C523.804 206.121 531.115 217.897 544.181 224.724C556.16 230.973 570.348 230.757 583.522 230.793C600.315 230.829 617.145 230.179 633.902 229.167C633.54 241.305 633.106 253.442 632.527 265.543C631.911 278.945 631.332 292.347 630.572 305.749C629.703 320.812 627.64 335.622 630.102 350.541C631.947 361.74 644.832 369.831 655.509 369.831C667.416 369.831 677.333 361.595 680.916 350.541C686.055 334.647 684.933 315.321 685.766 298.668C686.598 282.124 687.177 265.579 687.43 248.999C687.575 239.029 687.648 229.059 687.684 219.089C695.465 216.343 702.704 212.731 710.63 209.408C724.6 203.447 724.13 186.939 716.204 176.608Z" fill="#D52A3F"/>
<path d="M213.594 67.359C212.98 67.1061 212.439 66.8531 211.789 66.7447C210.237 66.4917 208.649 66.6363 207.495 67.8649C206.701 68.7322 206.195 69.7802 206.195 70.9727C206.195 72.093 206.701 73.2855 207.495 74.0805C208.722 75.3092 210.165 75.4537 211.789 75.2008C212.439 75.0923 212.98 74.8394 213.594 74.5864C216.337 73.43 216.337 68.5154 213.594 67.359Z" fill="#9EB4B5"/>
<path d="M204.782 284C199.297 284 199.297 292.529 204.782 292.529C210.232 292.529 210.268 284 204.782 284Z" fill="#9EB4B5"/>
<path d="M607.899 255.669C607.61 255.669 607.357 255.705 607.068 255.705C604.903 255.85 602.81 257.512 602.918 259.861C603.026 262.21 604.759 263.872 607.068 264.016C607.357 264.016 607.61 264.053 607.899 264.053C610.1 264.197 612.193 262.029 612.085 259.861C612.013 257.693 610.244 255.488 607.899 255.669Z" fill="#9EB4B5"/>
<path d="M543.917 300.551C542.618 299.358 540.994 299.178 539.55 299.792C538.107 300.045 536.844 301.165 536.266 302.466C535.617 304.02 535.869 306.08 537.168 307.272C538.323 308.32 539.911 308.826 541.463 308.393C543.015 307.959 544.423 306.477 544.675 304.851C545.289 303.406 545.144 301.671 543.917 300.551Z" fill="#9EB4B5"/>
<path d="M607.91 96.9913C607.261 97.0636 606.647 97.0997 606.034 97.2804C604.41 97.7502 603.038 99.3402 603.147 101.111C603.219 102.882 604.338 104.436 606.034 104.941C606.647 105.122 607.297 105.158 607.91 105.231C610.04 105.447 612.097 103.207 611.989 101.147C611.88 99.015 610.184 96.7745 607.91 96.9913Z" fill="#9EB4B5"/>
<path d="M531.099 234.746C525.649 234.746 525.649 243.202 531.099 243.202C536.549 243.202 536.549 234.746 531.099 234.746Z" fill="#9EB4B5"/>
<path d="M83.2295 261.885C81.6776 259.138 77.4912 259.138 75.9032 261.885C75.3619 262.824 75.1454 263.8 75.2536 264.848C75.3619 266.04 75.6506 267.052 76.5168 267.919C77.2747 268.678 78.5017 269.22 79.5844 269.184C82.1107 269.076 83.6265 267.269 83.9152 264.848C84.0235 263.8 83.7709 262.824 83.2295 261.885Z" fill="#9EB4B5"/>
<path d="M96.262 139.091C91.462 139.091 91.4259 146.571 96.262 146.571C101.098 146.607 101.098 139.091 96.262 139.091Z" fill="#9EB4B5"/>
<path d="M217.303 137.176C217.015 137.176 216.762 137.212 216.473 137.212C214.416 137.356 212.431 138.946 212.539 141.151C212.648 143.391 214.272 144.945 216.473 145.09C216.762 145.09 217.015 145.126 217.303 145.126C219.396 145.27 221.381 143.211 221.309 141.115C221.201 139.127 219.541 137.067 217.303 137.176Z" fill="#9EB4B5"/>
<path d="M212.598 65.8413C211.984 65.5884 211.443 65.3354 210.793 65.227C209.241 64.974 207.653 65.1186 206.498 66.3472C205.704 67.2145 205.199 68.2625 205.199 69.455C205.199 70.5753 205.704 71.7678 206.498 72.5628C207.726 73.7915 209.169 73.936 210.793 73.6831C211.443 73.5746 211.984 73.3217 212.598 73.0687C215.377 71.9485 215.377 67.0339 212.598 65.8413Z" fill="white"/>
<path d="M203.794 282.519C198.308 282.519 198.308 291.047 203.794 291.047C209.28 291.011 209.28 282.519 203.794 282.519Z" fill="white"/>
<path d="M606.922 254.151C606.633 254.151 606.381 254.187 606.092 254.187C603.926 254.332 601.833 255.994 601.942 258.343C602.05 260.692 603.782 262.354 606.092 262.499C606.381 262.499 606.633 262.535 606.922 262.535C609.123 262.68 611.217 260.511 611.108 258.343C611.036 256.175 609.268 254.007 606.922 254.151Z" fill="white"/>
<path d="M542.925 299.033C541.626 297.841 540.002 297.66 538.558 298.274C537.115 298.527 535.851 299.648 535.274 300.948C534.624 302.502 534.877 304.562 536.176 305.755C537.331 306.803 538.919 307.309 540.471 306.875C542.023 306.441 543.43 304.96 543.683 303.334C544.296 301.888 544.188 300.19 542.925 299.033Z" fill="white"/>
<path d="M606.922 95.4737C606.273 95.5459 605.659 95.5821 605.046 95.7628C603.422 96.2325 602.05 97.8226 602.158 99.5933C602.231 101.364 603.349 102.918 605.046 103.424C605.659 103.604 606.309 103.641 606.922 103.713C609.051 103.93 611.109 101.689 611 99.6294C610.928 97.5335 609.196 95.2568 606.922 95.4737Z" fill="white"/>
<path d="M530.15 233.228C524.7 233.228 524.7 241.684 530.15 241.684C535.563 241.684 535.599 233.228 530.15 233.228Z" fill="white"/>
<path d="M82.2803 260.403C80.7284 257.656 76.542 257.656 74.954 260.403C74.4127 261.342 74.1961 262.318 74.3044 263.366C74.4127 264.559 74.7014 265.57 75.5676 266.438C76.3254 267.197 77.5525 267.739 78.6352 267.703C81.1615 267.594 82.6773 265.787 82.966 263.366C83.0382 262.318 82.7855 261.306 82.2803 260.403Z" fill="white"/>
<path d="M95.3127 137.609C90.5128 137.609 90.4767 145.09 95.3127 145.09C100.113 145.09 100.149 137.609 95.3127 137.609Z" fill="white"/>
<path d="M216.311 135.694C216.022 135.694 215.77 135.73 215.481 135.73C213.424 135.875 211.439 137.465 211.547 139.669C211.655 141.91 213.28 143.464 215.481 143.608C215.77 143.608 216.022 143.644 216.311 143.644C218.404 143.789 220.389 141.729 220.317 139.633C220.209 137.609 218.549 135.55 216.311 135.694Z" fill="white"/>
</svg>
