<svg width="9" height="40" viewBox="0 0 9 40" fill="none" xmlns="http://www.w3.org/2000/svg">
<path d="M8 0.661783C8 -1.81012 8 -3.04607 8.09925 -4.08741C9.10005 -14.5876 17.4124 -22.8999 27.9126 -23.9007C28.9539 -24 30.1899 -24 32.6618 -24H119C139.742 -24 150.113 -24 156.556 -17.5563C163 -11.1127 163 -0.741798 163 20V33C163 53.7418 163 64.1127 156.556 70.5564C150.113 77 139.742 77 119 77H43.3338C30.8864 77 24.6627 77 19.9187 74.5542C15.8531 72.4582 12.5418 69.1469 10.4458 65.0813C8 60.3373 8 54.1136 8 41.6662V35.3953C8 29.7157 5.66896 24.2849 1.55176 20.3724L1.33544 20.1669C0.62706 19.4937 0.670698 18.3516 1.42838 17.7344C5.58662 14.3475 8 9.26908 8 3.90602V0.661783Z" fill="white"/>
</svg>
