<svg width="20" height="20" viewBox="0 0 20 20" fill="none" xmlns="http://www.w3.org/2000/svg">
<path d="M10 18.25C14.5563 18.25 18.25 14.5563 18.25 10C18.25 5.44365 14.5563 1.75 10 1.75C5.44365 1.75 1.75 5.44365 1.75 10C1.75 14.5563 5.44365 18.25 10 18.25Z" fill="#C3C5CA" fill-opacity="0.3"/>
<path d="M10 1.75C11.0834 1.75 12.1562 1.96339 13.1571 2.37799C14.1581 2.7926 15.0675 3.40029 15.8336 4.16637C16.5997 4.93245 17.2074 5.84193 17.622 6.84286C18.0366 7.8438 18.25 8.91659 18.25 10C18.25 11.0834 18.0366 12.1562 17.622 13.1571C17.2074 14.1581 16.5997 15.0675 15.8336 15.8336C15.0675 16.5997 14.1581 17.2074 13.1571 17.622C12.1562 18.0366 11.0834 18.25 10 18.25C7.81196 18.25 5.71354 17.3808 4.16637 15.8336C2.61919 14.2865 1.75 12.188 1.75 10C1.75 7.81196 2.61919 5.71354 4.16637 4.16637C5.71354 2.61919 7.81196 1.75 10 1.75V1.75Z" stroke="#D34F50" stroke-width="2" stroke-linecap="round"/>
<path d="M10.0002 15.5C10.5064 15.5 10.9168 15.0896 10.9168 14.5833C10.9168 14.0771 10.5064 13.6667 10.0002 13.6667C9.4939 13.6667 9.0835 14.0771 9.0835 14.5833C9.0835 15.0896 9.4939 15.5 10.0002 15.5Z" fill="#D34F50"/>
<path d="M7.25 8.16666C7.25 7.6979 7.36982 7.23693 7.59809 6.8275C7.82636 6.41808 8.15549 6.07381 8.55424 5.82737C8.95299 5.58093 9.40811 5.44051 9.87639 5.41944C10.3447 5.39837 10.8106 5.49735 11.2298 5.70698C11.6491 5.91662 12.0078 6.22994 12.2719 6.61721C12.5361 7.00448 12.6968 7.45283 12.7389 7.91969C12.781 8.38655 12.703 8.85643 12.5125 9.28469C12.3219 9.71296 12.025 10.0854 11.65 10.3667C10.9827 10.8681 10.4583 10.9167 10 11.8333" stroke="#D34F50" stroke-width="2" stroke-linecap="round"/>
</svg>
