<svg width="18" height="24" viewBox="0 0 18 24" fill="none" xmlns="http://www.w3.org/2000/svg">
<path d="M13.306 4.55929C11.8128 4.23586 10.2613 4.17878 8.74862 4.40709C8.98133 4.15976 9.19466 3.85535 9.3692 3.55094C9.85403 2.59967 9.91221 1.47717 9.52435 0.487843C9.38859 0.12636 8.98133 -0.0829221 8.59347 0.0312306C7.54623 0.316613 6.67353 1.02056 6.16931 1.97183C6.03356 2.25721 5.91719 2.54259 5.85901 2.847C5.49054 2.46649 5.0445 2.12403 4.55967 1.89573C3.39607 1.32496 2.03854 1.24886 0.816761 1.7245C0.448288 1.85768 0.234963 2.25721 0.351323 2.63772C0.700402 3.87438 1.55371 4.90175 2.7173 5.49154C3.24092 5.73887 3.80333 5.9101 4.36573 5.94815C3.18274 6.61404 2.13551 7.48921 1.24342 8.49756C0.0798183 9.82934 -0.308049 11.7129 0.254357 13.3871V13.4061C1.63128 17.4776 4.44331 20.9402 8.16682 23.1662C9.64071 24.0414 11.4249 24.2316 13.0539 23.7179C14.683 23.1852 16.0017 21.9866 16.6417 20.4265C18.2901 16.4692 18.4453 12.0363 17.0683 7.96485V7.94582C16.5059 6.23353 15.0708 4.9398 13.306 4.55929ZM16.1375 8.2312C17.4368 12.0934 17.2817 16.279 15.7302 20.027C15.1872 21.3207 14.1012 22.3291 12.7436 22.7667C11.3861 23.2042 9.91221 23.033 8.69044 22.31C5.16086 20.2172 2.50398 16.9258 1.20463 13.0827V13.0637C0.758581 11.7129 1.04948 10.1908 1.99975 9.10638C3.33789 7.58434 5.08328 6.44281 7.04201 5.79595C9.00073 5.16811 11.0952 5.05395 13.1121 5.51056C14.5084 5.81497 15.672 6.86137 16.1375 8.2312Z" fill="#D34F50"/>
<path d="M15.129 8.5355C14.7799 7.50813 13.9072 6.74711 12.8405 6.5188C11.0758 6.13829 9.19461 6.19537 7.37164 6.78516C5.52928 7.37495 3.97782 8.44038 2.81422 9.77216C2.09667 10.5903 1.86395 11.7128 2.21303 12.7211V12.7401C2.73665 14.2812 3.47359 15.7081 4.38508 16.9638C4.38508 16.9638 4.38508 16.9638 4.38508 16.9828C4.71476 17.4394 5.41292 17.4584 5.762 17.0018C6.38258 16.1837 7.58497 15.0232 9.89277 14.2812C13.6551 13.0636 15.8271 10.6093 15.129 8.5355ZM7.17771 12.664C6.71227 13.0445 6.51834 13.9007 6.53773 14.5666C6.53773 14.6237 6.46016 14.6617 6.42137 14.6046C6.07229 14.0339 5.43232 13.4441 4.83112 13.368C4.79234 13.368 4.77294 13.3299 4.75355 13.3109C4.75355 13.2728 4.75355 13.2538 4.77294 13.2158C5.23838 12.8353 5.43232 11.9791 5.41292 11.3132C5.41292 11.2561 5.49049 11.2181 5.52928 11.2752C5.87836 11.8459 6.51834 12.4357 7.11953 12.5118C7.15832 12.5118 7.17771 12.5499 7.1971 12.5689C7.2165 12.607 7.2165 12.645 7.17771 12.664ZM7.54618 9.31555C7.25528 9.56288 7.15832 10.1146 7.17771 10.5142C7.17771 10.5522 7.11953 10.5712 7.10014 10.5332C6.86742 10.1907 6.46016 9.82923 6.07229 9.77216C6.0529 9.77216 6.03351 9.75313 6.03351 9.7341C6.03351 9.71508 6.0335 9.69606 6.0529 9.67703C6.3438 9.4297 6.44077 8.87796 6.42137 8.47843C6.42137 8.44037 6.47955 8.42135 6.49894 8.4594C6.73166 8.80186 7.13892 9.16334 7.52679 9.22042C7.54618 9.22042 7.56557 9.23944 7.56557 9.25847C7.58497 9.27749 7.56558 9.29652 7.54618 9.31555Z" fill="#D34F50"/>
</svg>
