<svg width="31" height="31" viewBox="0 0 31 31" fill="none" xmlns="http://www.w3.org/2000/svg">
<circle cx="15.5" cy="15.5" r="15.5" fill="#EDF9ED"/>
<path d="M9.05843 14.9533C9.058 16.1788 9.3782 17.3752 9.98686 18.4296L9 22.0326L12.6874 21.0657C13.7034 21.6198 14.8472 21.9118 16.0113 21.9123H16.0142C19.8476 21.9123 22.9684 18.7925 22.97 14.9587C22.9706 13.1006 22.2476 11.3536 20.9345 10.0393C19.6211 8.72501 17.8749 8.0008 16.0142 8C12.1801 8 9.05991 11.1192 9.05831 14.9531M11.2542 18.2479L11.1165 18.0293C10.5377 17.1091 10.2323 16.0456 10.2327 14.9536C10.2339 11.7671 12.8273 9.17445 16.0163 9.17445C17.5606 9.17505 19.0119 9.77709 20.1037 10.8694C21.1953 11.9618 21.7959 13.4139 21.7955 14.9582C21.7941 18.1449 19.2006 20.7378 16.0141 20.7378H16.0118C14.9743 20.7372 13.9567 20.4587 13.0693 19.9321L12.8581 19.8069L10.6698 20.3806L11.2542 18.2479ZM16.0142 21.9123H16.0143H16.0142C16.0141 21.9123 16.0142 21.9123 16.0142 21.9123Z" fill="#26A019"/>
<path fill-rule="evenodd" clip-rule="evenodd" d="M14.2759 12.0461C14.1457 11.7566 14.0087 11.7508 13.8848 11.7457C13.7835 11.7414 13.6676 11.7417 13.5518 11.7417C13.4358 11.7417 13.2476 11.7852 13.0883 11.9591C12.929 12.1331 12.48 12.5535 12.48 13.4086C12.48 14.2637 13.1029 15.09 13.1896 15.2061C13.2766 15.3219 14.392 17.1328 16.1584 17.8294C17.6266 18.4083 17.9254 18.2932 18.244 18.2642C18.5627 18.2352 19.2723 17.8439 19.4171 17.438C19.562 17.0322 19.562 16.6844 19.5185 16.6118C19.4751 16.5393 19.3592 16.4958 19.1854 16.409C19.0115 16.322 18.1571 15.9015 17.9978 15.8435C17.8384 15.7856 17.7226 15.7567 17.6066 15.9307C17.4908 16.1045 17.1579 16.4958 17.0565 16.6118C16.9551 16.7279 16.8537 16.7424 16.6799 16.6555C16.5061 16.5683 15.9463 16.3849 15.2823 15.7929C14.7656 15.3322 14.4168 14.7633 14.3153 14.5893C14.214 14.4155 14.3045 14.3214 14.3917 14.2347C14.4698 14.1569 14.5655 14.0318 14.6525 13.9304C14.7392 13.8289 14.7681 13.7565 14.826 13.6405C14.884 13.5245 14.855 13.423 14.8116 13.3361C14.7681 13.2492 14.4304 12.3897 14.2758 12.046" fill="#26A019"/>
</svg>
