<svg width="39" height="39" viewBox="0 0 39 39" fill="none" xmlns="http://www.w3.org/2000/svg">
<path d="M21.25 27.7266C21.25 29.4066 22.6168 30.7734 24.2969 30.7734H27.877C29.557 30.7734 30.9238 29.4066 30.9238 27.7266V24.1465C30.9238 22.4664 29.557 21.0996 27.877 21.0996H24.2969C22.6168 21.0996 21.25 22.4664 21.25 24.1465V27.7266ZM24.2969 24.1465H27.877L27.8789 27.7265C27.8789 27.7265 27.8783 27.7266 27.877 27.7266H24.2969V24.1465Z" fill="#182037"/>
<path d="M29.4023 17.5195C30.2437 17.5195 30.9258 16.8375 30.9258 15.9961C30.9258 15.1547 30.2437 14.4727 29.4023 14.4727C28.561 14.4727 27.8789 15.1547 27.8789 15.9961C27.8789 16.8375 28.561 17.5195 29.4023 17.5195Z" fill="#182037"/>
<path d="M22.7734 17.5195C23.6148 17.5195 24.2969 16.8375 24.2969 15.9961C24.2969 15.1547 23.6148 14.4727 22.7734 14.4727C21.9321 14.4727 21.25 15.1547 21.25 15.9961C21.25 16.8375 21.9321 17.5195 22.7734 17.5195Z" fill="#182037"/>
<path d="M37.4766 26.8125C38.318 26.8125 39 26.1305 39 25.2891V9.14062C39 5.78053 36.2663 3.04688 32.9062 3.04688H30.9258V1.52344C30.9258 0.682043 30.2437 0 29.4023 0C28.5609 0 27.8789 0.682043 27.8789 1.52344V3.04688H20.9473V1.52344C20.9473 0.682043 20.2652 0 19.4238 0C18.5824 0 17.9004 0.682043 17.9004 1.52344V3.04688H11.0449V1.52344C11.0449 0.682043 10.3629 0 9.52148 0C8.68009 0 7.99805 0.682043 7.99805 1.52344V3.04688H6.09375C2.73366 3.04688 0 5.78053 0 9.14062V32.9062C0 36.2663 2.73366 39 6.09375 39H32.9062C36.2663 39 39 36.2663 39 32.9062C39 32.0649 38.318 31.3828 37.4766 31.3828C36.6352 31.3828 35.9531 32.0649 35.9531 32.9062C35.9531 34.5863 34.5863 35.9531 32.9062 35.9531H6.09375C4.4137 35.9531 3.04688 34.5863 3.04688 32.9062V9.14062C3.04688 7.46058 4.4137 6.09375 6.09375 6.09375H7.99805V7.61719C7.99805 8.45858 8.68009 9.14062 9.52148 9.14062C10.3629 9.14062 11.0449 8.45858 11.0449 7.61719V6.09375H17.9004V7.61719C17.9004 8.45858 18.5824 9.14062 19.4238 9.14062C20.2652 9.14062 20.9473 8.45858 20.9473 7.61719V6.09375H27.8789V7.61719C27.8789 8.45858 28.5609 9.14062 29.4023 9.14062C30.2437 9.14062 30.9258 8.45858 30.9258 7.61719V6.09375H32.9062C34.5863 6.09375 35.9531 7.46058 35.9531 9.14062V25.2891C35.9531 26.1305 36.6352 26.8125 37.4766 26.8125Z" fill="#182037"/>
<path d="M9.52344 30.7734C10.3648 30.7734 11.0469 30.0914 11.0469 29.25C11.0469 28.4086 10.3648 27.7266 9.52344 27.7266C8.68207 27.7266 8 28.4086 8 29.25C8 30.0914 8.68207 30.7734 9.52344 30.7734Z" fill="#182037"/>
<path d="M9.52344 17.5195C10.3648 17.5195 11.0469 16.8375 11.0469 15.9961C11.0469 15.1547 10.3648 14.4727 9.52344 14.4727C8.68207 14.4727 8 15.1547 8 15.9961C8 16.8375 8.68207 17.5195 9.52344 17.5195Z" fill="#182037"/>
<path d="M9.52344 24.1465C10.3648 24.1465 11.0469 23.4644 11.0469 22.623C11.0469 21.7817 10.3648 21.0996 9.52344 21.0996C8.68207 21.0996 8 21.7817 8 22.623C8 23.4644 8.68207 24.1465 9.52344 24.1465Z" fill="#182037"/>
<path d="M16.1484 24.1465C16.9898 24.1465 17.6719 23.4644 17.6719 22.623C17.6719 21.7817 16.9898 21.0996 16.1484 21.0996C15.3071 21.0996 14.625 21.7817 14.625 22.623C14.625 23.4644 15.3071 24.1465 16.1484 24.1465Z" fill="#182037"/>
<path d="M16.1484 17.5195C16.9898 17.5195 17.6719 16.8375 17.6719 15.9961C17.6719 15.1547 16.9898 14.4727 16.1484 14.4727C15.3071 14.4727 14.625 15.1547 14.625 15.9961C14.625 16.8375 15.3071 17.5195 16.1484 17.5195Z" fill="#182037"/>
<path d="M16.1484 30.7734C16.9898 30.7734 17.6719 30.0914 17.6719 29.25C17.6719 28.4086 16.9898 27.7266 16.1484 27.7266C15.3071 27.7266 14.625 28.4086 14.625 29.25C14.625 30.0914 15.3071 30.7734 16.1484 30.7734Z" fill="#182037"/>
</svg>
